<svg width="129" height="41" viewBox="0 0 129 41" fill="none" xmlns="http://www.w3.org/2000/svg">
<rect width="129" height="41" rx="20.5" fill="#EDED4F"/>
<path d="M45.0773 26C45.0773 24.7947 45.2907 23.808 45.7173 23.04C46.144 22.2613 46.8267 21.6107 47.7653 21.088L49.3653 20.208C50.272 19.7067 50.7253 19.0187 50.7253 18.144C50.7253 17.664 50.576 17.2747 50.2773 16.976C49.9787 16.6773 49.5947 16.528 49.1253 16.528C48.5173 16.528 48.048 16.7253 47.7173 17.12C47.3867 17.5147 47.2213 18.08 47.2213 18.816H45.3173C45.3173 17.632 45.6587 16.688 46.3413 15.984C47.0347 15.28 47.9627 14.928 49.1253 14.928C50.224 14.928 51.088 15.2107 51.7173 15.776C52.3573 16.3307 52.6773 17.088 52.6773 18.048C52.6773 18.7093 52.4907 19.3333 52.1173 19.92C51.744 20.5067 51.2213 20.992 50.5493 21.376L48.9813 22.272C48.384 22.6133 47.968 22.9227 47.7333 23.2C47.5093 23.4773 47.3493 23.8613 47.2533 24.352H52.6453V26H45.0773ZM58.0282 26.192C57.0042 26.192 56.1402 25.904 55.4362 25.328C54.7322 24.7413 54.3482 23.9947 54.2842 23.088H56.1402C56.1722 23.5467 56.3696 23.9093 56.7322 24.176C57.0949 24.432 57.5376 24.56 58.0602 24.56C58.7216 24.56 59.2389 24.3573 59.6122 23.952C59.9962 23.5467 60.1882 23.0027 60.1882 22.32C60.1882 21.648 60.0122 21.1093 59.6602 20.704C59.3189 20.2987 58.8549 20.096 58.2682 20.096C57.2336 20.096 56.5296 20.5173 56.1562 21.36H54.4762V15.12H61.3082V16.752H56.1402V19.568C56.6949 18.928 57.4896 18.608 58.5242 18.608C59.5696 18.608 60.4016 18.944 61.0202 19.616C61.6389 20.2773 61.9482 21.1573 61.9482 22.256C61.9482 23.376 61.5909 24.3147 60.8762 25.072C60.1616 25.8187 59.2122 26.192 58.0282 26.192ZM65.82 26.288L64.652 25.648L72.204 14.736L73.34 15.376L65.82 26.288ZM67.916 19.68C67.404 20.2027 66.716 20.464 65.852 20.464C64.988 20.464 64.2946 20.2027 63.772 19.68C63.26 19.1467 63.004 18.5013 63.004 17.744C63.004 16.9867 63.26 16.3467 63.772 15.824C64.2946 15.2907 64.988 15.024 65.852 15.024C66.716 15.024 67.404 15.2907 67.916 15.824C68.4386 16.3467 68.7 16.9867 68.7 17.744C68.7 18.5013 68.4386 19.1467 67.916 19.68ZM64.876 18.736C65.1106 18.992 65.436 19.12 65.852 19.12C66.268 19.12 66.5933 18.992 66.828 18.736C67.0626 18.4693 67.18 18.1387 67.18 17.744C67.18 17.3493 67.0626 17.024 66.828 16.768C66.5933 16.5013 66.268 16.368 65.852 16.368C65.436 16.368 65.1106 16.5013 64.876 16.768C64.6413 17.024 64.524 17.3493 64.524 17.744C64.524 18.1387 64.6413 18.4693 64.876 18.736ZM74.252 25.296C73.74 25.8187 73.052 26.08 72.188 26.08C71.324 26.08 70.6306 25.8187 70.108 25.296C69.596 24.7627 69.34 24.1173 69.34 23.36C69.34 22.6027 69.596 21.9627 70.108 21.44C70.6306 20.9067 71.324 20.64 72.188 20.64C73.052 20.64 73.74 20.9067 74.252 21.44C74.7746 21.9627 75.036 22.6027 75.036 23.36C75.036 24.1173 74.7746 24.7627 74.252 25.296ZM71.212 24.352C71.4466 24.608 71.772 24.736 72.188 24.736C72.604 24.736 72.9293 24.608 73.164 24.352C73.3986 24.0853 73.516 23.7547 73.516 23.36C73.516 22.9653 73.3986 22.64 73.164 22.384C72.9293 22.1173 72.604 21.984 72.188 21.984C71.772 21.984 71.4466 22.1173 71.212 22.384C70.9773 22.64 70.86 22.9653 70.86 23.36C70.86 23.7547 70.9773 24.0853 71.212 24.352ZM89.9311 24.576C88.8858 25.7067 87.4831 26.272 85.7231 26.272C83.9631 26.272 82.5551 25.7067 81.4991 24.576C80.4538 23.4453 79.9311 22.0533 79.9311 20.4C79.9311 18.7467 80.4538 17.3547 81.4991 16.224C82.5551 15.0933 83.9631 14.528 85.7231 14.528C87.4831 14.528 88.8858 15.0933 89.9311 16.224C90.9871 17.3547 91.5151 18.7467 91.5151 20.4C91.5151 22.0533 90.9871 23.4453 89.9311 24.576ZM82.8751 23.424C83.5684 24.224 84.5178 24.624 85.7231 24.624C86.9284 24.624 87.8724 24.224 88.5551 23.424C89.2484 22.6133 89.5898 21.6053 89.5791 20.4C89.5898 19.1947 89.2484 18.192 88.5551 17.392C87.8724 16.5813 86.9284 16.176 85.7231 16.176C84.5178 16.176 83.5684 16.5813 82.8751 17.392C82.1924 18.192 81.8564 19.1947 81.8671 20.4C81.8564 21.6053 82.1924 22.6133 82.8751 23.424ZM93.2742 26V14.8H99.7382V16.448H95.1142V20H99.7382V21.648H95.1142V26H93.2742ZM101.743 26V14.8H108.207V16.448H103.583V20H108.207V21.648H103.583V26H101.743Z" fill="#131D29"/>
<path d="M34.0398 28.1562H25.1926C21.291 28.1562 20.1055 26.9837 20.1055 23.125V22.6875C20.1055 22.3287 20.4063 22.0312 20.769 22.0312C21.6183 22.0312 22.3173 21.34 22.3173 20.5C22.3173 19.66 21.6183 18.9688 20.769 18.9688C20.4063 18.9688 20.1055 18.6712 20.1055 18.3125V17.875C20.1055 14.0163 21.291 12.8438 25.1926 12.8438H34.0398C37.9415 12.8438 39.127 14.0163 39.127 17.875V18.75C39.127 19.1087 38.8262 19.4062 38.4635 19.4062C37.6141 19.4062 36.9152 20.0975 36.9152 20.9375C36.9152 21.7775 37.6141 22.4688 38.4635 22.4688C38.8262 22.4688 39.127 22.7662 39.127 23.125C39.127 26.9837 37.9415 28.1562 34.0398 28.1562ZM21.4326 23.265C21.4502 26.275 22.0784 26.8438 25.1926 26.8438H34.0398C36.9948 26.8438 37.7114 26.3275 37.7911 23.7025C36.5259 23.405 35.5881 22.2762 35.5881 20.9375C35.5881 19.5988 36.5348 18.47 37.7999 18.1725V17.875C37.7999 14.7513 37.1983 14.1562 34.0398 14.1562H25.1926C22.0784 14.1562 21.4502 14.725 21.4326 17.735C22.6977 18.0325 23.6444 19.1613 23.6444 20.5C23.6444 21.8387 22.6977 22.9675 21.4326 23.265Z" fill="#131D29"/>
<path d="M32.2705 23.895C31.7751 23.895 31.377 23.5013 31.377 23.02C31.377 22.5388 31.7751 22.145 32.2617 22.145C32.7483 22.145 33.1464 22.5388 33.1464 23.02C33.1464 23.5013 32.766 23.895 32.2705 23.895Z" fill="#131D29"/>
<path d="M26.9619 19.52C26.4665 19.52 26.0684 19.1263 26.0684 18.645C26.0684 18.1638 26.4665 17.77 26.9531 17.77C27.4397 17.77 27.8378 18.1638 27.8378 18.645C27.8378 19.1263 27.4574 19.52 26.9619 19.52Z" fill="#131D29"/>
<path d="M26.6359 24.3763C26.4678 24.3763 26.2997 24.3151 26.167 24.1838C25.9105 23.9301 25.9105 23.5101 26.167 23.2563L32.1212 17.3676C32.3778 17.1138 32.8025 17.1138 33.059 17.3676C33.3156 17.6213 33.3156 18.0413 33.059 18.2951L27.1048 24.1838C26.981 24.3151 26.804 24.3763 26.6359 24.3763Z" fill="#131D29"/>
</svg>
